<?xml version="1.0" encoding="utf-8"?>
<!-- Generator: Adobe Illustrator 25.2.1, SVG Export Plug-In . SVG Version: 6.00 Build 0)  -->
<svg version="1.1" id="Calque_1" xmlns="http://www.w3.org/2000/svg" xmlns:xlink="http://www.w3.org/1999/xlink" x="0px" y="0px"
	 viewBox="0 0 51.64 51.73" style="enable-background:new 0 0 51.64 51.73;" xml:space="preserve">
<style type="text/css">
	.st0{fill:#FFFFFF;stroke:#020203;stroke-miterlimit:10;}
	.st1{fill:#020203;}
</style>
<circle class="st0" cx="26.26" cy="24.48" r="21.26"/>
<path class="st1" d="M26.66,33.88h-2.8v-6.26l8.44-8.44c0.78-0.78,0.23-2.1-0.87-2.1H13.09c-1.1,0-1.65,1.33-0.87,2.1l8.44,8.44
	v6.26h-2.8c-1.1,0-2,0.9-2,2c0,0.22,0.18,0.4,0.4,0.4h12c0.22,0,0.4-0.18,0.4-0.4C28.66,34.77,27.76,33.88,26.66,33.88z
	 M33.46,10.68c-3.13,0-5.77,2.01-6.76,4.8h2.63c0.83-1.43,2.36-2.4,4.13-2.4c2.65,0,4.8,2.15,4.8,4.8s-2.15,4.8-4.8,4.8
	c-0.7,0-1.36-0.16-1.97-0.43l-1.76,1.76c1.09,0.67,2.36,1.07,3.73,1.07c3.98,0,7.2-3.22,7.2-7.2S37.44,10.68,33.46,10.68z"/>
</svg>
