<?xml version="1.0" encoding="utf-8"?>
<!-- Generator: Adobe Illustrator 25.2.1, SVG Export Plug-In . SVG Version: 6.00 Build 0)  -->
<svg version="1.1" id="Calque_1" xmlns="http://www.w3.org/2000/svg" xmlns:xlink="http://www.w3.org/1999/xlink" x="0px" y="0px"
	 viewBox="0 0 49.97 47.7" style="enable-background:new 0 0 49.97 47.7;" xml:space="preserve">
<style type="text/css">
	.st0{fill:#FFFFFF;stroke:#020203;stroke-miterlimit:10;}
	.st1{fill:#020203;}
</style>
<circle class="st0" cx="24.92" cy="24.67" r="21.26"/>
<path class="st1" d="M31.37,19.87v-1.6c0-3.53-2.87-6.4-6.4-6.4c-3.53,0-6.4,2.87-6.4,6.4v1.6h-4.8v13.6c0,2.21,1.79,4,4,4h14.4
	c2.21,0,4-1.79,4-4v-13.6H31.37z M21.77,18.27c0-1.76,1.44-3.2,3.2-3.2c1.76,0,3.2,1.44,3.2,3.2v1.6h-6.4V18.27z M29.77,24.27
	c-0.66,0-1.2-0.54-1.2-1.2s0.54-1.2,1.2-1.2s1.2,0.54,1.2,1.2S30.43,24.27,29.77,24.27z M20.17,24.27c-0.66,0-1.2-0.54-1.2-1.2
	s0.54-1.2,1.2-1.2s1.2,0.54,1.2,1.2S20.83,24.27,20.17,24.27z"/>
</svg>
