<?xml version="1.0" encoding="utf-8"?>
<!-- Generator: Adobe Illustrator 25.2.1, SVG Export Plug-In . SVG Version: 6.00 Build 0)  -->
<svg version="1.1" id="Calque_1" xmlns="http://www.w3.org/2000/svg" xmlns:xlink="http://www.w3.org/1999/xlink" x="0px" y="0px"
	 viewBox="0 0 56.13 57.23" style="enable-background:new 0 0 56.13 57.23;" xml:space="preserve">
<style type="text/css">
	.st0{fill:#FFFFFF;stroke:#020203;stroke-miterlimit:10;}
	.st1{fill:#020203;}
</style>
<g>
	<circle class="st0" cx="27.68" cy="28.93" r="21.26"/>
	<path class="st1" d="M40.25,19.76l-3.39-3.39c-0.31-0.31-0.82-0.31-1.13,0l-1.13,1.13c-0.31,0.31-0.31,0.82,0,1.13l-3.83,3.83
		c-2.33-0.99-5.12-0.54-7.02,1.36l-7.92,7.92c-1.25,1.25-1.25,3.28,0,4.53l4.53,4.53c1.25,1.25,3.28,1.25,4.53,0l7.92-7.92
		c1.9-1.9,2.35-4.69,1.36-7.02l3.83-3.83c0.31,0.31,0.82,0.31,1.13,0l1.13-1.13C40.56,20.57,40.56,20.07,40.25,19.76L40.25,19.76z
		 M23.84,37.29l-4.53-4.53l6.1-6.1l4.53,4.53L23.84,37.29z"/>
</g>
</svg>
