<?xml version="1.0" encoding="utf-8"?>
<!-- Generator: Adobe Illustrator 25.2.1, SVG Export Plug-In . SVG Version: 6.00 Build 0)  -->
<svg version="1.1" id="Calque_1" xmlns="http://www.w3.org/2000/svg" xmlns:xlink="http://www.w3.org/1999/xlink" x="0px" y="0px"
	 viewBox="0 0 51.6 53.7" style="enable-background:new 0 0 51.6 53.7;" xml:space="preserve">
<style type="text/css">
	.st0{fill:#020203;stroke:#FFFFFF;stroke-miterlimit:10;}
	.st1{fill:#CCCC00;}
</style>
<circle class="st0" cx="25.3" cy="26" r="21.3"/>
<path class="st1" d="M23.9,13.4c0,0.2,0.8,4.7,0.8,6.4c0,2.6-1.4,4.5-3.4,5.2L21.9,37c0,0.7-0.5,1.3-1.2,1.3h-3.2
	c-0.7,0-1.2-0.6-1.2-1.3L17,25.1c-2.1-0.8-3.4-2.6-3.4-5.2c0-1.7,0.8-6.2,0.8-6.4c0.2-1,2.3-1,2.4,0.1v7.1c0.1,0.2,0.8,0.2,0.8,0
	c0.1-1.3,0.4-7,0.4-7.1c0.2-1,2.2-1,2.4,0c0,0.1,0.3,5.8,0.4,7.1c0,0.2,0.7,0.2,0.8,0v-7.1C21.7,12.4,23.8,12.4,23.9,13.4z
	 M29.9,27.7l-0.8,9.3c-0.1,0.7,0.5,1.3,1.2,1.3h2.8c0.7,0,1.2-0.5,1.2-1.2V13.8c0-0.7-0.5-1.2-1.2-1.2C29,12.6,22.1,21.6,29.9,27.7
	L29.9,27.7z"/>
</svg>
