<?xml version="1.0" encoding="utf-8"?>
<!-- Generator: Adobe Illustrator 25.2.1, SVG Export Plug-In . SVG Version: 6.00 Build 0)  -->
<svg version="1.1" id="Calque_1" xmlns="http://www.w3.org/2000/svg" xmlns:xlink="http://www.w3.org/1999/xlink" x="0px" y="0px"
	 viewBox="0 0 49.97 49.05" style="enable-background:new 0 0 49.97 49.05;" xml:space="preserve">
<style type="text/css">
	.st0{fill:#FFFFFF;stroke:#000000;stroke-miterlimit:10;}
	.st1{fill:#020203;}
</style>
<circle class="st0" cx="24.58" cy="24.33" r="21.26"/>
<path id="House" class="st1" d="M24.2,18.95l-9.22,7.59v8.19c0,0.44,0.36,0.8,0.8,0.8l5.6-0.01c0.44,0,0.8-0.36,0.8-0.8v-4.79
	c0-0.44,0.36-0.8,0.8-0.8h3.2c0.44,0,0.8,0.36,0.8,0.8v4.78c0,0.44,0.36,0.8,0.8,0.8c0,0,0,0,0,0l5.6,0.02c0.44,0,0.8-0.36,0.8-0.8
	v-8.2l-9.22-7.59C24.74,18.77,24.42,18.77,24.2,18.95L24.2,18.95z M38.76,24.11l-4.18-3.45v-6.93c0-0.33-0.27-0.6-0.6-0.6h-2.8
	c-0.33,0-0.6,0.27-0.6,0.6v3.63l-4.48-3.68c-0.89-0.73-2.16-0.73-3.05,0L10.4,24.11c-0.26,0.21-0.29,0.59-0.08,0.84l0,0l1.28,1.55
	c0.21,0.26,0.59,0.29,0.84,0.08c0,0,0,0,0,0L24.2,16.9c0.22-0.18,0.54-0.18,0.77,0l11.76,9.69c0.26,0.21,0.63,0.18,0.84-0.08l0,0
	l1.27-1.55C39.06,24.7,39.02,24.32,38.76,24.11C38.76,24.11,38.76,24.11,38.76,24.11L38.76,24.11z"/>
</svg>
