<?xml version="1.0" encoding="utf-8"?>
<!-- Generator: Adobe Illustrator 25.2.1, SVG Export Plug-In . SVG Version: 6.00 Build 0)  -->
<svg version="1.1" id="Calque_1" xmlns="http://www.w3.org/2000/svg" xmlns:xlink="http://www.w3.org/1999/xlink" x="0px" y="0px"
	 viewBox="0 0 51.64 53.74" style="enable-background:new 0 0 51.64 53.74;" xml:space="preserve">
<style type="text/css">
	.st0{fill:#FFFFFF;stroke:#020203;stroke-miterlimit:10;}
	.st1{fill:#020203;}
</style>
<circle class="st0" cx="25.25" cy="26.01" r="21.26"/>
<path class="st1" d="M23.93,13.4c0.04,0.24,0.81,4.72,0.81,6.44c0,2.62-1.39,4.48-3.44,5.23l0.65,11.91
	c0.03,0.69-0.51,1.26-1.2,1.26h-3.2c-0.69,0-1.24-0.58-1.2-1.26l0.65-11.91c-2.06-0.75-3.45-2.62-3.45-5.23
	c0-1.72,0.77-6.2,0.81-6.44c0.16-1.01,2.27-1.03,2.39,0.06v7.06c0.07,0.17,0.76,0.16,0.8,0c0.07-1.27,0.39-6.96,0.4-7.09
	c0.16-1.04,2.23-1.04,2.39,0c0.01,0.13,0.33,5.82,0.4,7.09c0.04,0.16,0.74,0.17,0.8,0v-7.06C21.66,12.38,23.77,12.39,23.93,13.4z
	 M29.89,27.69l-0.75,9.26c-0.06,0.7,0.5,1.3,1.19,1.3h2.8c0.67,0,1.2-0.53,1.2-1.2v-23.2c0-0.66-0.53-1.2-1.2-1.2
	C29.01,12.64,22.07,21.57,29.89,27.69L29.89,27.69z"/>
</svg>
