<?xml version="1.0" encoding="utf-8"?>
<!-- Generator: Adobe Illustrator 25.2.1, SVG Export Plug-In . SVG Version: 6.00 Build 0)  -->
<svg version="1.1"
	 id="svg2" xmlns:cc="http://creativecommons.org/ns#" xmlns:dc="http://purl.org/dc/elements/1.1/" xmlns:rdf="http://www.w3.org/1999/02/22-rdf-syntax-ns#" xmlns:svg="http://www.w3.org/2000/svg"
	 xmlns="http://www.w3.org/2000/svg" xmlns:xlink="http://www.w3.org/1999/xlink" x="0px" y="0px" viewBox="0 0 234 234"
	 style="enable-background:new 0 0 234 234;" xml:space="preserve">
<style type="text/css">
	.st0{fill:#FFFFFF;stroke:#000000;stroke-miterlimit:10;}
	.st1{fill:#63675C;}
	.st2{fill:#930C38;}
</style>
<g>
	<circle class="st0" cx="117.6" cy="116.6" r="99.2"/>
	<g id="g10" transform="matrix(1.25,0,0,-1.25,0,313.99998)">
		<g id="g4709" transform="matrix(7.4438353,0,0,7.4438353,-458.63705,-5617.038)">
			<g id="g4704">
				<path id="path30" class="st1" d="M67.4,778.9L67.4,778.9h-0.5v0.2h1.1v-0.2h-0.5v-1.3h-0.2V778.9L67.4,778.9z"/>
				<path id="path32" class="st1" d="M69.5,778.5L69.5,778.5v-0.7c0,0-0.1,0-0.1-0.1c0,0-0.1,0-0.1,0c0,0-0.1,0-0.1,0
					c-0.1,0-0.1,0-0.1,0c-0.1,0-0.2,0-0.3,0.1c-0.1,0-0.2,0.1-0.2,0.2c-0.1,0.1-0.1,0.2-0.2,0.3c0,0.1,0,0.2,0,0.3
					c0,0.1,0,0.2,0.1,0.3c0,0.1,0.1,0.2,0.2,0.2c0.1,0.1,0.2,0.1,0.2,0.2c0.1,0,0.2,0.1,0.3,0.1c0.1,0,0.2,0,0.3,0
					c0.1,0,0.2-0.1,0.2-0.1l-0.1-0.2c-0.1,0.1-0.1,0.1-0.2,0.1c-0.1,0-0.1,0-0.2,0c-0.1,0-0.2,0-0.2,0c-0.1,0-0.1-0.1-0.2-0.1
					c-0.1-0.1-0.1-0.1-0.1-0.2c0-0.1,0-0.1,0-0.2c0-0.1,0-0.2,0-0.2c0-0.1,0.1-0.1,0.1-0.2c0-0.1,0.1-0.1,0.2-0.1c0.1,0,0.1,0,0.2,0
					c0.1,0,0.1,0,0.2,0c0.1,0,0.1,0,0.2,0.1v0.4H69v0.2H69.5L69.5,778.5z"/>
				<path id="path34" class="st1" d="M69.7,779.1L69.7,779.1h0.2l0.4-1.2h0l0.4,1.2H71l-0.6-1.5h-0.2L69.7,779.1L69.7,779.1z"/>
			</g>
			<g id="g4695">
				<path id="path36" class="st1" d="M68.8,775.7L68.8,775.7c0,0.4,0.3,0.7,0.7,0.7c0.4,0,0.7-0.3,0.7-0.7v-2.1H71v2.1
					c0,0.8-0.7,1.5-1.5,1.5c-0.8,0-1.5-0.7-1.5-1.5v-2.1h0.8V775.7z"/>
				<path id="path38" class="st1" d="M67,777L67,777c-0.1-0.5-0.2-1.1-0.2-1.7c0,0,0-1.1,0-1.1c0,0,0,0,0.1,0
					c0.1,0.1,0.2,0.1,0.4,0.1c0.2,0,0.3-0.1,0.4-0.1v2.8H67L67,777z"/>
				<path id="path40" class="st2" d="M67.2,774L67.2,774c-0.3,0-0.5-0.2-0.5-0.5c0-0.3,0.2-0.5,0.5-0.5c0.3,0,0.5,0.2,0.5,0.5
					C67.6,773.8,67.4,774,67.2,774z"/>
				<path id="path42" class="st2" d="M79.7,774.9L79.7,774.9c0-0.4-0.3-0.7-0.7-0.7c-0.4,0-0.7,0.3-0.7,0.7v2.1h-0.8v-2.1
					c0-0.8,0.7-1.5,1.5-1.5c0.9,0,1.5,0.7,1.5,1.5v2.1h-0.8V774.9z"/>
				<path id="path44" class="st2" d="M81.3,776.6L81.3,776.6c0.3,0,0.5,0.2,0.5,0.5c0,0.3-0.2,0.5-0.5,0.5c-0.3,0-0.5-0.2-0.5-0.5
					C80.8,776.8,81.1,776.6,81.3,776.6z"/>
				<path id="path46" class="st2" d="M81.5,773.5L81.5,773.5c0.1,0.5,0.2,1.1,0.2,1.7c0,0,0,1.1,0,1.1c0,0,0,0-0.1,0
					c-0.1-0.1-0.2-0.1-0.4-0.1c-0.2,0-0.3,0-0.4,0.1v-2.8H81.5z"/>
				<path id="path48" class="st2" d="M74.2,777.2L74.2,777.2c1.1,0,1.9-0.9,1.9-1.9c0-1.1-0.9-1.9-1.9-1.9c-1.1,0-1.9,0.9-1.9,1.9
					C72.3,776.3,73.2,777.2,74.2,777.2z M74.2,772.4L74.2,772.4c1.6,0,2.8,1.3,2.8,2.8c0,1.6-1.3,2.8-2.8,2.8
					c-1.6,0-2.8-1.3-2.8-2.8C71.4,773.7,72.7,772.4,74.2,772.4z"/>
			</g>
		</g>
	</g>
</g>
</svg>
