<?xml version="1.0" encoding="utf-8"?>
<!-- Generator: Adobe Illustrator 25.2.1, SVG Export Plug-In . SVG Version: 6.00 Build 0)  -->
<svg version="1.1" id="Calque_1" xmlns="http://www.w3.org/2000/svg" xmlns:xlink="http://www.w3.org/1999/xlink" x="0px" y="0px"
	 viewBox="0 0 210 297" style="enable-background:new 0 0 210 297;" xml:space="preserve">
<style type="text/css">
	.st0{fill:#020203;}
</style>
<path class="st0" d="M18.72,6.03c-6.85,0-12.4,5.55-12.4,12.4s5.55,12.4,12.4,12.4s12.4-5.55,12.4-12.4S25.57,6.03,18.72,6.03z
	 M28.72,18.43c0,1.13-0.19,2.21-0.54,3.22h-1.01c-0.21,0-0.42-0.09-0.57-0.24L25,19.78c-0.22-0.23-0.22-0.61,0.01-0.84l0.63-0.63
	v-0.43c0-0.15-0.06-0.3-0.16-0.4l-0.47-0.47c-0.11-0.1-0.25-0.16-0.4-0.16h-0.8c-0.31,0-0.56-0.26-0.56-0.57
	c0-0.15,0.06-0.29,0.16-0.4l0.47-0.47c0.1-0.1,0.25-0.16,0.4-0.16h1.6c0.31,0,0.56-0.26,0.56-0.56v-0.47c0-0.31-0.25-0.56-0.56-0.56
	h-1.84c-0.44,0-0.8,0.36-0.8,0.8v0.23c0,0.34-0.22,0.65-0.55,0.76l-1.58,0.52c-0.16,0.05-0.27,0.21-0.27,0.38v0.11
	c0,0.22-0.18,0.4-0.4,0.4h-0.8c-0.22,0-0.4-0.18-0.4-0.4c0-0.22-0.18-0.4-0.4-0.4h-0.16c-0.15,0-0.29,0.09-0.36,0.22l-0.47,0.93
	c-0.14,0.27-0.41,0.44-0.72,0.44h-1.1c-0.44,0-0.8-0.36-0.8-0.8v-1.26c0-0.21,0.08-0.42,0.23-0.57l1.01-1.01
	c0.23-0.23,0.36-0.55,0.36-0.88c0-0.17,0.11-0.32,0.27-0.38l2-0.67c0.09-0.03,0.16-0.07,0.22-0.13l1.34-1.34
	c0.11-0.11,0.16-0.25,0.16-0.4c0-0.31-0.25-0.56-0.56-0.56h-1.03l-0.8,0.8v0.4c0,0.22-0.18,0.4-0.4,0.4h-0.8
	c-0.22,0-0.4-0.18-0.4-0.4v-1c0-0.13,0.06-0.24,0.16-0.32l1.44-1.09c0.09-0.01,0.19-0.02,0.28-0.02
	C24.24,8.43,28.72,12.91,28.72,18.43z M12.83,13.08c0-0.15,0.06-0.3,0.17-0.4l1.27-1.27c0.11-0.11,0.25-0.16,0.4-0.16
	c0.31,0,0.57,0.25,0.57,0.56v0.8c0,0.15-0.06,0.3-0.16,0.4l-0.47,0.47c-0.11,0.11-0.25,0.16-0.4,0.16h-0.8
	C13.08,13.65,12.83,13.39,12.83,13.08z M19.23,28.4v-0.36c0-0.44-0.36-0.8-0.8-0.8h-1.01c-0.54,0-1.34-0.26-1.77-0.59l-1.11-0.83
	c-0.57-0.43-0.91-1.11-0.91-1.82v-1.19c0-0.8,0.42-1.54,1.11-1.95l2.14-1.28c0.36-0.21,0.76-0.33,1.17-0.33h1.56
	c0.54,0,1.07,0.19,1.48,0.55l2.16,1.85h0.92c0.42,0,0.83,0.17,1.13,0.47l0.86,0.86c0.17,0.17,0.41,0.26,0.65,0.26h0.67
	C25.85,26.19,22.78,28.22,19.23,28.4L19.23,28.4z"/>
</svg>
